<svg width="30" height="30" viewBox="0 0 30 30" fill="none" xmlns="http://www.w3.org/2000/svg">
<rect width="30" height="30" fill="#F5F5F5"/>
<g id="Book Now" clip-path="url(#clip0_1908_6425)">
<rect width="1512" height="2673" transform="translate(-458 -795)" fill="white"/>
<g id="Frame 126" filter="url(#filter0_d_1908_6425)">
<rect x="-338" y="-220" width="859" height="329" rx="14" fill="white" shape-rendering="crispEdges"/>
<g id="Frame 136">
<g id="Frame 135">
<g id="Frame 133">
<g id="airplane 1">
<path id="Vector" d="M3.57628 17.0557C3.31801 17.1768 3.20407 17.4819 3.31916 17.7426L4.49883 20.275C4.55679 20.4011 4.66253 20.4993 4.79256 20.5477C4.84953 20.5684 4.90995 20.5791 4.9707 20.5791C5.04672 20.5797 5.12175 20.5635 5.19087 20.5321L14.1038 16.369L13.2965 24.81C13.2809 24.9761 13.345 25.1395 13.4693 25.2505C13.86 25.5739 14.347 25.7581 14.8537 25.7747C14.9934 25.7745 15.1323 25.757 15.2677 25.7225C15.9913 25.5337 16.5523 24.8889 16.935 23.7877L20.4425 13.4017L27.3892 10.1614C29.434 9.20727 30.4877 7.27268 29.7801 5.76267C29.3785 4.97343 28.6093 4.43654 27.7301 4.3313C26.7532 4.18386 25.7547 4.33754 24.8675 4.77197L16.851 8.531L8.23191 5.15978C7.14648 4.75096 6.28681 4.76147 5.68392 5.19672C5.17807 5.61178 4.89025 6.23569 4.90257 6.88996C4.90782 7.05596 4.99139 7.20947 5.12799 7.30437L10.9318 11.2941L7.60801 12.867L2.03458 11.4512C1.8062 11.395 1.56846 11.498 1.45271 11.7029L0.063535 14.2036C-0.0085423 14.3361 -0.0198711 14.4934 0.032504 14.6349C0.0845507 14.7766 0.195212 14.8887 0.336247 14.9429L4.46238 16.647L3.57628 17.0557ZM5.97716 6.62792C6.00802 6.40627 6.12016 6.20449 6.2919 6.06165C6.59088 5.84657 7.13614 5.87809 7.86479 6.15064L15.5405 9.14439L12.0381 10.7802L5.97716 6.62792ZM1.2588 14.1985L2.17102 12.5785L7.53445 13.91C7.65004 13.9393 7.77203 13.9283 7.88072 13.8788L25.3132 5.73656C26.0063 5.39473 26.7868 5.27028 27.5519 5.37995C28.0885 5.42937 28.5664 5.73903 28.8312 6.20827C29.2713 7.15217 28.4063 8.531 26.9434 9.21253L20.9037 12.0439L21.2708 10.9583C21.3636 10.679 21.2121 10.3773 20.9328 10.2847C20.6532 10.1921 20.3516 10.3436 20.259 10.6229L15.944 23.4625C15.6871 24.1915 15.3672 24.6267 15.0108 24.7208C14.79 24.7633 14.5614 24.72 14.3711 24.6005L15.4198 13.5902C15.4472 13.3007 15.2349 13.0438 14.9451 13.0164C14.6557 12.9886 14.3987 13.2012 14.3711 13.4907L14.2087 15.1736L5.21173 19.3679L4.47289 17.795L5.95105 17.1031C6.14134 17.0192 6.26399 16.8311 6.26399 16.6234C6.26399 16.4155 6.14134 16.2273 5.95105 16.1436L1.2588 14.1985Z" fill="#D68A2C"/>
</g>
</g>
</g>
</g>
</g>
</g>
<defs>
<filter id="filter0_d_1908_6425" x="-398" y="-280" width="979" height="449" filterUnits="userSpaceOnUse" color-interpolation-filters="sRGB">
<feFlood flood-opacity="0" result="BackgroundImageFix"/>
<feColorMatrix in="SourceAlpha" type="matrix" values="0 0 0 0 0 0 0 0 0 0 0 0 0 0 0 0 0 0 127 0" result="hardAlpha"/>
<feOffset/>
<feGaussianBlur stdDeviation="30"/>
<feComposite in2="hardAlpha" operator="out"/>
<feColorMatrix type="matrix" values="0 0 0 0 0 0 0 0 0 0 0 0 0 0 0 0 0 0 0.07 0"/>
<feBlend mode="normal" in2="BackgroundImageFix" result="effect1_dropShadow_1908_6425"/>
<feBlend mode="normal" in="SourceGraphic" in2="effect1_dropShadow_1908_6425" result="shape"/>
</filter>
<clipPath id="clip0_1908_6425">
<rect width="1512" height="2673" fill="white" transform="translate(-458 -795)"/>
</clipPath>
</defs>
</svg>
