<?xml version="1.0" standalone="no"?>
<!DOCTYPE svg PUBLIC "-//W3C//DTD SVG 1.1//EN" "http://www.w3.org/Graphics/SVG/1.1/DTD/svg11.dtd">
<!--Generator: Xara Designer (www.xara.com), SVG filter version: 6.0.0.4-->
<svg stroke-width="0.501" stroke-linejoin="bevel" fill-rule="evenodd" xmlns:xlink="http://www.w3.org/1999/xlink" xmlns="http://www.w3.org/2000/svg" version="1.1" overflow="visible" width="600pt" height="242.208pt" viewBox="0 0 600 242.208">
 <defs>
	</defs>
 <g id="Document" fill="none" stroke="black" font-family="Times New Roman" font-size="16" transform="scale(1 -1)">
  <g id="Spread" transform="translate(0 -242.208)">
   <g id="Layer 1">
    <path d="M 290.881,236.172 C 266.301,232.935 246.678,214.699 241.849,190.529 C 240.847,185.521 240.59,182.49 240.744,177.25 C 241.053,166.309 244.212,156.163 250.119,147.199 C 255.642,138.8 264.066,131.377 272.619,127.37 C 275.265,126.137 276.164,125.932 276.601,126.446 C 277.166,127.165 276.755,127.601 270.821,132.815 C 262.654,140.007 257.183,148.714 254.691,158.475 C 253.047,164.973 252.508,171.934 253.381,175.632 C 255.41,184.185 264.529,187.524 272.106,182.49 C 275.676,180.127 279.4,173.911 282.02,165.923 C 283.561,161.274 284.306,157.884 285.616,149.845 C 287.568,137.824 289.289,132.071 292.243,127.73 C 296.327,121.719 304.469,120.127 311.558,123.98 C 322.037,129.656 328.972,145.992 330.179,167.85 C 330.385,171.548 330.488,172.267 330.976,172.447 C 332.671,173.089 335.111,161.942 335.958,149.742 C 336.369,143.757 337.217,141.497 339.169,141.112 C 340.428,140.88 341.378,141.343 342.816,142.91 C 347.337,147.713 352.859,160.17 354.297,168.749 C 355.839,178.072 355.402,186.959 353.013,195.281 C 350.239,204.887 345.179,213.312 337.988,220.247 C 333.287,224.767 329.383,227.387 328.253,226.797 C 327.328,226.309 327.688,225.538 330.128,222.867 C 339.041,213.132 344.101,205.067 347.106,195.872 C 348.647,191.146 348.929,188.937 348.904,181.976 C 348.904,174.99 348.518,171.651 347.131,166.822 C 346.438,164.382 344.743,160.658 344.306,160.658 C 344.178,160.658 343.741,162.918 343.356,165.666 C 341.969,175.401 339.169,184.442 336.267,188.68 C 333.621,192.507 330.719,193.483 327.071,191.711 C 325.556,190.992 323.681,189.117 322.859,187.473 C 321.318,184.468 320.625,181.386 319.623,173.398 C 317.491,155.906 315.282,146.095 311.943,139.339 C 309.58,134.511 307.833,133.047 304.469,133.047 C 302.414,133.047 300.898,133.637 300.051,134.716 C 298.921,136.129 298.561,138.646 298.202,147.815 C 297.611,163.175 297.097,168.081 295.505,174.245 C 292.731,185.059 287.696,192.764 280.094,197.824 L 277.782,199.365 L 279.195,199.185 C 279.965,199.108 282.354,198.697 284.46,198.286 C 290.958,197.053 293.912,196.719 298.741,196.719 C 306.96,196.745 313.535,197.901 317.106,199.981 C 319.52,201.394 321.061,203.937 321.061,206.505 C 321.061,208.817 319.546,212.105 317.106,215.007 C 314.64,218.012 311.558,220.35 304.058,225.024 C 302.799,225.769 301.797,226.463 301.797,226.54 C 301.797,226.642 302.183,226.899 302.671,227.13 C 305.111,228.286 312.303,229.005 318.827,228.723 C 322.063,228.594 323.219,228.62 323.501,228.851 C 324.529,229.699 323.398,230.752 319.803,232.293 C 315.333,234.194 309.375,235.684 303.801,236.274 C 300.513,236.634 294.092,236.583 290.881,236.172 Z M 293.116,218.577 C 296.506,217.524 303.03,213.774 304.751,211.874 C 306.061,210.435 305.907,209.844 304.109,209.202 C 302.902,208.766 302.08,208.689 298.458,208.714 C 293.989,208.714 292.448,208.92 285.41,210.384 C 281.25,211.257 280.479,211.617 280.479,212.721 C 280.479,214.442 287.851,219.04 290.65,219.091 C 291.113,219.091 292.217,218.86 293.116,218.577 Z" fill="#d6182a" fill-rule="evenodd" stroke-linejoin="miter" stroke="none" stroke-width="0.026" marker-start="none" marker-end="none" stroke-miterlimit="79.8403193612775"/>
    <path d="M 51.318,104.588 C 47.054,101.762 44.357,99.142 37.063,90.666 C 33.827,86.891 31.207,83.5 29.023,80.264 C 27.046,77.31 26.301,76.797 23.63,76.617 C 22.217,76.488 21.703,76.591 20.368,77.156 C 19.494,77.516 18.416,77.824 17.979,77.824 C 15.385,77.824 15.642,73.971 18.518,68.963 L 19.571,67.165 L 18.595,65.367 C 18.056,64.391 16.078,60.975 14.152,57.79 C 8.887,49.005 7.397,45.487 7.808,42.815 C 8.296,39.553 12.354,37.884 14.409,40.093 C 15.102,40.838 15.128,40.915 14.974,42.995 C 14.871,44.408 14.948,45.461 15.154,46.129 C 15.693,47.773 21.344,56.993 22.679,58.355 L 23.887,59.639 L 26.558,56.069 C 34.751,45.127 39.606,40.298 51.755,31.052 C 59.794,24.939 67.756,20.983 77.902,18.081 C 96.446,12.815 117.303,11.428 142.936,13.766 C 152.44,14.639 157.602,15.589 156.883,16.334 C 156.78,16.437 153.544,16.36 149.691,16.206 C 134.794,15.538 117.559,17.387 97.859,21.728 C 84.092,24.759 76.387,27.353 66.138,32.362 C 49.982,40.298 35.547,51.651 28.844,61.694 L 27.2,64.185 L 28.253,66.214 C 30.359,70.273 31.104,70.812 41.686,76 C 45.667,77.952 50.188,80.315 51.703,81.266 C 54.991,83.269 58.227,85.709 59.049,86.814 C 60.128,88.303 60.667,90.333 60.796,93.543 C 60.924,96.086 60.847,96.805 60.41,98.295 C 59.434,101.505 57.303,104.896 55.736,105.692 C 54.477,106.334 53.681,106.154 51.318,104.588 Z M 54.297,95.572 C 54.375,95.444 54.066,94.622 53.63,93.723 C 52.654,91.797 49.905,88.946 47.311,87.225 C 45,85.709 42.123,84.142 42.123,84.425 C 42.123,85.401 50.856,94.725 52.397,95.392 C 53.424,95.829 54.092,95.906 54.297,95.572 Z" fill="#d6182a" fill-rule="evenodd" stroke-linejoin="miter" stroke="none" stroke-width="0.026" marker-start="none" marker-end="none" stroke-miterlimit="79.8403193612775"/>
    <path d="M 216.883,86.968 C 213.544,85.427 209.691,79.827 207.662,73.612 C 204.863,65.033 204.375,56.043 206.506,51.882 C 207.996,48.954 211.232,47.413 213.852,48.415 C 215.496,49.031 217.114,50.778 219.863,54.887 C 223.125,59.716 224.357,61.257 225.719,62.156 C 227.029,63.029 228.647,63.184 229.828,62.567 C 231.01,61.951 232.756,59.87 234.503,56.916 C 237.328,52.216 240.025,50.264 243.184,50.701 C 248.065,51.394 254.075,57.918 256.361,64.981 C 257.003,67.011 257.131,67.755 257.054,69.297 C 256.977,70.966 256.9,71.223 256.155,71.942 C 255.539,72.584 255.077,72.79 254.075,72.892 C 252.97,72.995 252.765,72.918 252.38,72.404 C 252.148,72.071 251.969,71.326 251.969,70.761 C 251.969,68.731 251.018,65.059 249.991,63.132 C 248.758,60.769 245.547,57.456 244.058,57.019 C 243.184,56.737 242.928,56.788 242.029,57.25 C 240.77,57.867 239.897,58.92 237.123,63.081 C 233.835,68.012 231.626,69.528 227.953,69.297 C 223.998,69.04 220.196,65.983 215.727,59.408 C 214.751,57.944 213.724,56.66 213.441,56.505 C 211.849,55.658 211.053,56.865 211.078,60.101 C 211.104,64.134 212.594,69.708 214.777,74.1 C 216.215,76.925 217.063,78.106 219.503,80.701 C 221.943,83.269 222.405,84.245 221.815,85.632 C 221.378,86.685 220.068,87.584 218.964,87.584 C 218.553,87.584 217.602,87.302 216.883,86.968 Z" fill="#d6182a" fill-rule="evenodd" stroke-linejoin="miter" stroke="none" stroke-width="0.026" marker-start="none" marker-end="none" stroke-miterlimit="79.8403193612775"/>
    <path d="M 409.623,87.071 C 404.691,86.3 399.529,83.937 394.854,80.367 C 392.619,78.646 387.791,73.458 386.224,71.12 C 382.988,66.266 381.087,61.129 381.061,57.25 C 381.035,55.221 381.113,54.913 381.934,53.269 C 383.398,50.392 385.53,49.185 389.666,48.877 C 396.883,48.338 409.957,53.064 424.366,61.437 C 426.292,62.541 428.013,63.62 428.167,63.826 C 428.938,64.75 427.808,65.752 425.958,65.752 C 424.7,65.752 423.313,65.084 417.765,61.771 C 413.09,58.997 405.976,55.35 402.996,54.194 C 396.138,51.548 390.898,51.446 389.126,53.911 C 388.15,55.298 387.97,56.66 388.458,59.048 C 390.128,67.319 397.345,76.771 404.794,80.521 C 410.368,83.321 414.426,83.654 416.558,81.523 C 417.431,80.649 417.457,80.624 417.328,78.774 C 417.251,77.541 416.969,76.36 416.481,75.255 C 415.428,72.79 415.376,72.096 416.224,71.711 C 417.148,71.274 418.176,71.326 418.895,71.814 C 419.948,72.559 422.414,76.617 422.902,78.389 C 423.416,80.341 423.21,81.523 422.029,83.166 C 419.922,86.069 414.375,87.815 409.623,87.071 Z" fill="#d6182a" fill-rule="evenodd" stroke-linejoin="miter" stroke="none" stroke-width="0.026" marker-start="none" marker-end="none" stroke-miterlimit="79.8403193612775"/>
    <path d="M 362.131,86.043 C 360.616,85.247 357.919,81.702 356.172,78.184 C 355.119,76.103 353.655,72.019 352.782,68.757 C 352.089,66.163 351.267,64.93 348.621,62.387 C 345.513,59.382 338.373,55.093 336.832,55.273 C 335.753,55.401 335.085,56.531 335.085,58.124 C 335.137,60.358 336.446,62.13 338.912,63.209 C 340.428,63.877 343.767,64.16 345.308,63.749 C 347.106,63.235 348.801,64.519 348.801,66.394 C 348.801,69.245 341.172,69.502 334.803,66.831 C 330.976,65.238 327.457,62.618 323.296,58.278 C 321.472,56.403 320.393,55.478 320.085,55.529 C 319.083,55.709 319.597,59.844 321.113,63.697 C 322.936,68.269 324.323,70.555 330.051,78.338 C 332.029,81.035 332.773,82.601 332.517,83.577 C 332.157,85.016 329.897,85.555 328.279,84.605 C 327.431,84.091 323.347,78.569 320.419,73.971 C 315.462,66.137 312.791,56.942 314.152,52.422 C 315.025,49.493 318.133,48.312 321.215,49.725 C 322.14,50.136 323.373,51.343 328.253,56.557 L 329.922,58.329 L 329.845,56.891 C 329.614,53.218 331.72,50.367 335.034,49.93 C 338.321,49.468 343.921,52.37 349.52,57.43 C 350.547,58.38 351.421,59.1 351.472,59.048 C 351.498,58.997 351.652,58.252 351.806,57.404 C 352.679,52.55 355.196,49.827 358.073,50.598 C 359.82,51.06 361.412,53.475 361.078,55.118 C 360.924,56.043 359.845,56.274 358.202,55.812 L 356.712,55.401 L 356.224,56.017 C 355.248,57.327 354.863,61.309 355.582,63.029 C 355.762,63.492 357.303,66.06 358.972,68.731 C 362.285,74.048 365.214,79.673 365.881,82.036 C 366.421,83.86 366.138,85.196 365.059,86.017 C 364.238,86.685 363.339,86.685 362.131,86.043 Z" fill="#d6182a" fill-rule="evenodd" stroke-linejoin="miter" stroke="none" stroke-width="0.026" marker-start="none" marker-end="none" stroke-miterlimit="79.8403193612775"/>
    <path d="M 171.395,83.86 C 170.137,83.218 169.315,82.447 166.592,79.237 L 165.308,77.747 L 160.428,77.901 C 157.731,78.004 153.21,78.235 150.385,78.44 C 140.779,79.16 135.77,79.391 124.135,79.545 C 115.042,79.673 112.371,79.622 111.755,79.365 C 110.779,78.98 109.931,77.644 109.931,76.54 C 109.931,75.41 111.472,73.92 113.116,73.458 C 114.297,73.124 114.58,73.149 119.563,73.689 C 121.643,73.92 137.311,73.612 146.018,73.175 C 149.28,73.021 153.262,72.944 154.88,73.021 C 157.731,73.149 160.607,72.969 160.941,72.636 C 161.018,72.533 160.222,70.786 159.169,68.757 C 156.729,64.083 155.547,61.052 155.034,58.329 C 154.34,54.656 154.571,53.012 156.061,51.368 C 157.243,50.059 158.116,49.75 160.196,49.879 C 162.508,50.007 164.075,50.778 167.542,53.398 C 170.393,55.581 171.601,56.249 172.705,56.249 C 174.297,56.249 174.863,55.324 174.272,53.654 C 173.681,52.036 173.784,51.42 174.76,50.444 C 175.505,49.699 175.813,49.571 176.84,49.571 C 177.893,49.571 178.176,49.699 179.023,50.547 C 181.875,53.398 180.154,59.819 176.07,61.54 C 174.606,62.13 171.806,62.079 170.034,61.411 C 169.263,61.103 167.363,59.947 165.847,58.843 C 162.945,56.711 161.943,56.274 161.018,56.762 C 159.734,57.456 161.018,61.36 164.46,67.165 C 165.462,68.86 166.695,70.684 167.234,71.223 L 168.184,72.173 L 172.885,72.173 C 177.637,72.173 182.696,71.762 186.729,71.017 C 187.936,70.812 189.297,70.632 189.76,70.632 C 190.762,70.632 191.994,71.223 192.226,71.788 C 192.765,73.226 191.815,75.769 190.351,76.719 C 189.503,77.31 189.323,77.31 182.003,77.31 C 177.893,77.31 174.092,77.387 173.553,77.49 L 172.577,77.644 L 173.193,78.312 C 174.246,79.416 174.914,80.726 174.914,81.677 C 174.914,82.576 174.092,84.245 173.655,84.245 C 173.527,84.245 173.27,84.297 173.065,84.374 C 172.885,84.451 172.14,84.219 171.395,83.86 Z" fill="#d6182a" fill-rule="evenodd" stroke-linejoin="miter" stroke="none" stroke-width="0.026" marker-start="none" marker-end="none" stroke-miterlimit="79.8403193612775"/>
    <path d="M 60.77,72.404 C 59.229,72.045 56.892,70.684 55.479,69.322 C 54.066,67.961 51.857,64.699 51.215,63.004 C 50.958,62.336 50.625,61.899 50.368,61.899 C 49.803,61.925 47.748,62.85 47.183,63.389 C 46.489,64.005 45.821,65.444 45.59,66.702 C 45.077,69.887 42.637,68.423 42.637,64.904 C 42.637,62.079 44.871,59.074 48.082,57.584 C 49.212,57.071 49.623,56.737 49.726,56.249 C 50.085,54.708 50.727,53.141 51.523,52.062 C 53.758,49.005 59.666,48.029 65.162,49.853 C 67.114,50.495 74.871,54.297 78.955,56.608 C 83.476,59.177 86.532,60.615 87.508,60.615 C 88.792,60.615 89.383,60.204 89.383,59.356 C 89.383,58.458 88.638,57.687 86.635,56.531 C 84.529,55.273 84.246,54.99 84.246,54.091 C 84.246,51.754 86.866,51.112 89.974,52.678 C 91.72,53.577 93.672,55.632 94.263,57.199 C 95.445,60.384 94.392,63.98 91.875,65.29 C 90.539,65.958 87.405,66.214 85.582,65.752 C 84.837,65.572 82.063,64.185 79.058,62.49 C 71.455,58.175 65.239,55.041 63.518,54.682 C 61.155,54.194 58.33,54.271 57.148,54.862 C 56.609,55.118 55.993,55.606 55.787,55.915 C 55.453,56.454 55.479,56.48 56.429,56.634 C 61.001,57.379 65.214,60.127 66.678,63.338 C 68.707,67.704 67.525,71.66 64.006,72.404 C 62.465,72.738 62.157,72.738 60.77,72.404 Z M 63.339,66.908 C 63.595,65.855 63.21,64.904 62.029,63.8 C 60.719,62.541 58.407,61.591 56.969,61.694 L 55.993,61.771 L 56.506,62.824 C 57.765,65.341 60.436,67.55 62.208,67.55 C 63.03,67.55 63.21,67.447 63.339,66.908 Z" fill="#d6182a" fill-rule="evenodd" stroke-linejoin="miter" stroke="none" stroke-width="0.026" marker-start="none" marker-end="none" stroke-miterlimit="79.8403193612775"/>
    <path d="M 558.287,72.404 C 555.077,71.634 551.583,68.449 549.477,64.339 C 548.758,62.901 548.09,61.899 547.859,61.899 C 547.654,61.899 546.883,62.182 546.138,62.516 C 544.726,63.184 543.672,64.468 543.364,65.88 C 542.825,68.372 542.337,68.886 541.284,68.218 C 540,67.344 539.82,64.339 540.924,62.002 C 541.746,60.307 543.544,58.612 545.599,57.61 C 547.14,56.865 547.294,56.711 547.448,55.812 C 547.679,54.374 548.681,52.37 549.683,51.394 C 552.02,49.057 556.335,48.338 561.395,49.468 C 563.501,49.93 569.691,52.833 575.599,56.12 C 583.484,60.512 584.974,61.103 586.361,60.358 C 587.799,59.613 587.029,58.175 584.255,56.557 C 581.917,55.17 581.455,54.502 581.994,53.218 C 582.662,51.6 584.717,51.368 587.26,52.627 C 589.289,53.629 590.907,55.196 591.729,56.968 C 592.268,58.149 592.345,58.637 592.243,60.23 C 591.986,64.16 589.88,66.009 585.59,66.009 C 583.202,66.009 581.763,65.444 576.241,62.285 C 569.101,58.201 562.833,55.067 561.061,54.708 C 558.827,54.219 555.847,54.297 554.691,54.836 C 552.97,55.658 552.893,56.737 554.563,56.762 C 556.515,56.762 560.342,58.714 562.371,60.743 C 566.429,64.827 566.198,71.017 561.909,72.302 C 560.47,72.738 559.777,72.738 558.287,72.404 Z M 560.907,66.343 C 560.984,65.418 560.856,65.136 560.085,64.288 C 558.852,62.927 556.9,61.899 555.179,61.719 C 553.613,61.565 553.51,61.668 554.178,63.004 C 554.922,64.416 556.104,65.752 557.465,66.677 C 558.518,67.396 558.981,67.55 559.803,67.499 C 560.804,67.422 560.83,67.396 560.907,66.343 Z" fill="#d6182a" fill-rule="evenodd" stroke-linejoin="miter" stroke="none" stroke-width="0.026" marker-start="none" marker-end="none" stroke-miterlimit="79.8403193612775"/>
    <path d="M 504.58,70.658 C 504.272,70.529 503.886,70.247 503.707,70.016 C 502.91,69.065 505.273,67.319 507.328,67.293 C 507.868,67.293 508.69,67.499 509.203,67.73 C 510.41,68.295 510.308,68.963 508.895,69.964 C 507.739,70.761 505.607,71.12 504.58,70.658 Z" fill="#d6182a" fill-rule="evenodd" stroke-linejoin="miter" stroke="none" stroke-width="0.026" marker-start="none" marker-end="none" stroke-miterlimit="79.8403193612775"/>
    <path d="M 106.977,67.961 C 104.948,67.319 103.099,66.163 101.429,64.493 C 99.477,62.516 98.296,60.333 97.859,57.764 C 97.32,54.708 98.553,51.6 100.762,50.315 C 101.712,49.776 102.148,49.699 104.537,49.699 C 107.722,49.699 107.876,49.776 113.989,53.526 C 118.176,56.12 119.691,56.685 121.541,56.377 C 122.799,56.146 124.238,54.836 125.393,52.833 C 126.19,51.446 127.063,51.009 128.501,51.214 C 129.965,51.446 131.121,52.139 133.869,54.374 C 135.231,55.478 136.977,56.762 137.773,57.225 C 141.061,59.228 146.66,61.129 149.229,61.129 C 151.027,61.129 151.926,61.719 152.311,63.184 C 152.671,64.519 152.157,65.803 151.001,66.42 C 148.433,67.73 139.597,64.648 132.2,59.87 C 129.272,57.969 129.195,57.969 126.626,59.793 C 124.546,61.283 122.876,61.874 120.719,61.899 C 117.226,61.899 114.143,60.743 109.494,57.636 C 107.26,56.146 106.258,55.632 105.41,55.529 C 103.895,55.375 103.51,55.735 103.51,57.327 C 103.51,58.894 103.972,59.793 105.333,60.949 C 106.9,62.31 108.313,62.721 111.934,62.85 C 114.914,62.978 115.119,63.029 115.505,63.594 C 116.455,65.059 115.222,67.524 113.296,68.064 C 112.012,68.423 108.21,68.346 106.977,67.961 Z" fill="#d6182a" fill-rule="evenodd" stroke-linejoin="miter" stroke="none" stroke-width="0.026" marker-start="none" marker-end="none" stroke-miterlimit="79.8403193612775"/>
    <path d="M 265.864,67.704 C 262.525,66.42 260.111,64.237 258.467,60.923 C 256.207,56.377 257.517,51.189 261.267,49.93 C 263.013,49.365 266.275,49.519 267.97,50.29 C 268.638,50.598 270.693,51.754 272.517,52.884 C 276.857,55.581 278.09,56.197 279.657,56.403 C 281.738,56.66 282.996,55.915 284.486,53.5 C 286.155,50.855 287.131,50.547 289.854,51.856 C 290.702,52.267 292.371,53.423 293.578,54.451 C 294.785,55.452 296.558,56.762 297.534,57.327 C 300.95,59.331 306.267,61.129 308.758,61.129 C 310.402,61.129 311.198,61.54 311.712,62.618 C 312.611,64.545 311.532,66.471 309.426,66.702 C 306.138,67.088 297.868,63.851 291.523,59.716 C 290.342,58.946 289.16,58.303 288.955,58.303 C 288.724,58.303 287.465,58.997 286.155,59.819 C 283.356,61.617 281.943,62.028 279.22,61.822 C 275.984,61.565 273.107,60.333 268.458,57.25 C 266.172,55.735 265.633,55.478 264.683,55.478 C 263.809,55.478 263.476,55.606 263.27,55.966 C 262.654,57.173 263.321,59.613 264.58,60.795 C 264.914,61.103 265.89,61.668 266.738,62.053 C 268.073,62.67 268.69,62.773 271.566,62.901 C 275.214,63.081 275.342,63.132 275.342,64.802 C 275.342,67.267 274.058,68.141 270.205,68.243 C 267.868,68.321 267.303,68.243 265.864,67.704 Z" fill="#d6182a" fill-rule="evenodd" stroke-linejoin="miter" stroke="none" stroke-width="0.026" marker-start="none" marker-end="none" stroke-miterlimit="79.8403193612775"/>
    <path d="M 451.027,66.291 C 447.2,65.315 441.164,62.516 436.797,59.69 C 434.229,58.021 434.152,58.021 431.583,59.742 C 430.633,60.41 429.452,61.103 428.989,61.309 C 427.808,61.797 426.523,61.514 425.727,60.564 C 424.546,59.177 424.957,58.124 427.731,55.658 C 428.784,54.708 430.017,53.372 430.453,52.678 C 432.097,50.136 434.075,50.572 439.109,54.605 C 440.702,55.863 442.885,57.379 444.015,57.969 C 446.943,59.536 451.207,60.898 453.698,61.077 C 455.445,61.18 455.83,61.309 456.523,61.925 C 457.217,62.541 457.32,62.798 457.32,63.928 C 457.32,65.007 457.191,65.341 456.626,65.932 C 455.702,66.831 453.724,66.959 451.027,66.291 Z" fill="#d6182a" fill-rule="evenodd" stroke-linejoin="miter" stroke="none" stroke-width="0.026" marker-start="none" marker-end="none" stroke-miterlimit="79.8403193612775"/>
    <path d="M 481.335,65.675 C 480.847,65.495 478.869,64.237 476.969,62.901 C 472.577,59.819 470.676,58.637 468.005,57.302 C 465.616,56.094 464.717,56.017 464.871,57.019 C 465.025,58.175 466.464,60.666 467.748,62.028 C 469.16,63.517 469.186,63.98 467.953,64.622 C 466.643,65.29 464.666,65.547 463.099,65.213 C 461.892,64.981 461.481,64.725 460.248,63.466 C 458.296,61.463 457.345,59.459 457.32,57.276 C 457.32,54.656 458.09,53.783 461.044,53.012 C 462.457,52.653 462.945,52.653 464.614,52.91 C 469.186,53.654 472.654,55.247 478.15,59.228 C 478.69,59.613 478.715,59.588 478.895,58.149 C 479.255,55.196 480.179,53.654 482.234,52.576 C 483.672,51.831 486.909,51.677 488.938,52.267 C 490.762,52.781 494.075,54.322 495.821,55.427 C 496.541,55.889 497.208,56.249 497.311,56.249 C 497.414,56.249 497.517,55.94 497.517,55.555 C 497.517,54.348 498.647,52.319 499.931,51.189 C 501.523,49.802 503.681,49.057 506.635,48.877 C 511.618,48.594 514.186,49.673 525.77,56.916 C 530.753,60.024 532.217,60.718 533.167,60.487 C 535.402,59.922 534.914,58.406 531.832,56.274 C 529.417,54.605 529.083,53.834 530.214,52.524 C 531.652,50.829 534.888,51.754 537.559,54.579 C 539.82,56.993 540.359,59.742 539.152,62.567 C 538.433,64.211 537.534,65.11 536.07,65.624 C 533.347,66.574 529.931,65.829 526.515,63.543 C 517.5,57.481 512.568,54.939 509.049,54.528 C 506.07,54.168 505.71,54.887 506.789,58.74 C 507.226,60.255 507.611,62.13 507.636,62.901 C 507.662,64.108 507.585,64.339 506.943,64.802 C 506.429,65.213 505.761,65.367 504.477,65.444 C 502.166,65.572 501.267,65.161 499.982,63.261 C 498.904,61.668 498.313,61.231 492.534,57.738 C 489.195,55.709 488.013,55.324 487.294,56.043 C 486.806,56.531 486.934,58.843 487.628,61.488 C 488.45,64.673 488.45,64.879 487.448,65.392 C 486.344,65.958 482.568,66.137 481.335,65.675 Z" fill="#d6182a" fill-rule="evenodd" stroke-linejoin="miter" stroke="none" stroke-width="0.026" marker-start="none" marker-end="none" stroke-miterlimit="79.8403193612775"/>
   </g>
  </g>
 </g>
</svg>
